<svg width="15" height="15" viewBox="0 0 15 15" fill="none" xmlns="http://www.w3.org/2000/svg">
<path d="M13.6094 0.859375H1.39062C1.09678 0.859375 0.859375 1.09678 0.859375 1.39062V13.6094C0.859375 13.9032 1.09678 14.1406 1.39062 14.1406H13.6094C13.9032 14.1406 14.1406 13.9032 14.1406 13.6094V1.39062C14.1406 1.09678 13.9032 0.859375 13.6094 0.859375ZM12.0754 4.73584H11.0146C10.1828 4.73584 10.0218 5.13096 10.0218 5.71201V6.99199H12.0073L11.7483 8.9958H10.0218V14.1406H7.95156V8.99746H6.22002V6.99199H7.95156V5.51445C7.95156 3.79951 8.99912 2.86484 10.5298 2.86484C11.2636 2.86484 11.8928 2.91963 12.0771 2.94453V4.73584H12.0754Z" fill="#3B52A5"/>
</svg>
