<svg width="13" height="14" viewBox="0 0 13 14" fill="none" xmlns="http://www.w3.org/2000/svg">
<path d="M6.5 4.9998C6.1939 4.99992 5.8947 5.09167 5.64024 5.26345C5.38578 5.43523 5.18748 5.67933 5.07042 5.96489C4.95336 6.25044 4.92279 6.56463 4.98258 6.86773C5.04237 7.17082 5.18983 7.44921 5.40632 7.6677C5.62281 7.88619 5.8986 8.03496 6.19883 8.09521C6.49906 8.15546 6.81024 8.12448 7.09304 8.00619C7.37583 7.88789 7.61753 7.6876 7.78758 7.43063C7.95763 7.17366 8.04839 6.87155 8.04839 6.5625C8.04808 6.14804 7.88483 5.75066 7.5945 5.45764C7.30417 5.16463 6.91051 4.99996 6.5 4.9998ZM10.1188 3.79863C10.04 3.59702 9.92103 3.41391 9.76924 3.26066C9.61744 3.1074 9.43607 2.98727 9.23638 2.90771C8.62701 2.66484 7.17612 2.71934 6.5 2.71934C5.82388 2.71934 4.37444 2.66279 3.76333 2.90771C3.56364 2.98727 3.38227 3.1074 3.23047 3.26066C3.07868 3.41391 2.95969 3.59702 2.88089 3.79863C2.64062 4.41387 2.69431 5.88018 2.69431 6.56221C2.69431 7.24424 2.64062 8.70879 2.88205 9.32607C2.96085 9.52768 3.07984 9.7108 3.23163 9.86405C3.38343 10.0173 3.5648 10.1374 3.76449 10.217C4.37386 10.4599 5.82475 10.4054 6.50116 10.4054C7.17757 10.4054 8.62643 10.4619 9.23754 10.217C9.43723 10.1374 9.6186 10.0173 9.7704 9.86405C9.92219 9.7108 10.0412 9.52768 10.12 9.32607C10.3623 8.71084 10.3066 7.24453 10.3066 6.5625C10.3066 5.88047 10.3623 4.41621 10.12 3.79893L10.1188 3.79863ZM6.5 8.96484C6.02939 8.96484 5.56934 8.82395 5.17804 8.55998C4.78674 8.296 4.48176 7.92081 4.30166 7.48184C4.12157 7.04287 4.07444 6.55983 4.16626 6.09383C4.25807 5.62782 4.48469 5.19976 4.81746 4.86379C5.15024 4.52781 5.57422 4.29901 6.03579 4.20632C6.49736 4.11362 6.97579 4.1612 7.41058 4.34302C7.84537 4.52485 8.21699 4.83277 8.47845 5.22783C8.73991 5.62289 8.87946 6.08736 8.87946 6.5625C8.87985 6.87809 8.81856 7.19065 8.69912 7.48229C8.57967 7.77393 8.40442 8.03892 8.18339 8.26207C7.96236 8.48523 7.69989 8.66217 7.41103 8.78276C7.12217 8.90335 6.81258 8.96523 6.5 8.96484ZM8.97754 4.62012C8.86768 4.62017 8.76027 4.58734 8.6689 4.52576C8.57753 4.46418 8.5063 4.37662 8.46421 4.27416C8.42213 4.17171 8.41109 4.05895 8.43249 3.95016C8.45389 3.84137 8.50676 3.74142 8.58442 3.66297C8.66209 3.58452 8.76105 3.53109 8.86879 3.50943C8.97654 3.48777 9.08823 3.49886 9.18973 3.54129C9.29123 3.58372 9.37799 3.65559 9.43903 3.74781C9.50007 3.84003 9.53266 3.94846 9.53266 4.05937C9.53296 4.13303 9.51886 4.20602 9.49116 4.27417C9.46346 4.34231 9.42271 4.40426 9.37125 4.45646C9.31978 4.50867 9.25861 4.5501 9.19125 4.57839C9.12389 4.60667 9.05166 4.62125 8.97871 4.62129L8.97754 4.62012ZM11.6071 0H1.39286C1.02345 0 0.66917 0.148158 0.407958 0.411881C0.146747 0.675604 0 1.03329 0 1.40625L0 11.7188C0 12.0917 0.146747 12.4494 0.407958 12.7131C0.66917 12.9768 1.02345 13.125 1.39286 13.125H11.6071C11.9766 13.125 12.3308 12.9768 12.592 12.7131C12.8533 12.4494 13 12.0917 13 11.7188V1.40625C13 1.03329 12.8533 0.675604 12.592 0.411881C12.3308 0.148158 11.9766 0 11.6071 0ZM11.1104 8.49609C11.0729 9.24697 10.9032 9.9123 10.3602 10.459C9.81732 11.0057 9.15891 11.1806 8.41605 11.2163C7.64969 11.26 5.35205 11.26 4.58569 11.2163C3.84196 11.1785 3.18529 11.0068 2.6415 10.459C2.0977 9.91113 1.92679 9.24551 1.89138 8.49609C1.84815 7.72207 1.84815 5.40205 1.89138 4.62891C1.92882 3.87803 2.09654 3.2127 2.6415 2.66602C3.18645 2.11934 3.84487 1.94648 4.58569 1.91074C5.35205 1.86709 7.64969 1.86709 8.41605 1.91074C9.15978 1.94854 9.81848 2.12021 10.3602 2.66807C10.902 3.21592 11.075 3.88154 11.1104 4.63242C11.1536 5.40352 11.1536 7.72148 11.1104 8.49609Z" fill="url(#paint0_linear_406_234)"/>
<defs>
<linearGradient id="paint0_linear_406_234" x1="12" y1="1.0625" x2="1" y2="12.0625" gradientUnits="userSpaceOnUse">
<stop stop-color="#7420BC"/>
<stop offset="1" stop-color="#F7CB53"/>
</linearGradient>
</defs>
</svg>
