<svg width="65" height="14" viewBox="0 0 65 14" fill="none" xmlns="http://www.w3.org/2000/svg">
<g clip-path="url(#clip0_406_238)">
<path d="M20.3851 2.22727C20.267 1.8066 20.0365 1.42309 19.7166 1.11494C19.3967 0.806784 18.9986 0.584734 18.562 0.470903C16.9634 0.0509033 10.5294 0.0509033 10.5294 0.0509033C10.5294 0.0509033 4.0955 0.0636306 2.49692 0.483631C2.06026 0.597462 1.66216 0.819511 1.34229 1.12767C1.02241 1.43582 0.791915 1.81933 0.673754 2.23999C0.190217 4.97636 0.00261576 9.14581 0.686965 11.7727C0.805126 12.1934 1.03562 12.5769 1.3555 12.885C1.67537 13.1932 2.07347 13.4153 2.51014 13.5291C4.10871 13.9491 10.5427 13.9491 10.5427 13.9491C10.5427 13.9491 16.9766 13.9491 18.5752 13.5291C19.0118 13.4153 19.4099 13.1932 19.7298 12.885C20.0497 12.5769 20.2802 12.1934 20.3983 11.7727C20.9083 9.03254 21.0655 4.86563 20.3851 2.22727Z" fill="#FF0000"/>
<path d="M8.48175 9.97821L13.8191 7.00003L8.48175 4.02185V9.97821Z" fill="white"/>
<path d="M30.1087 12.689C29.6991 12.4218 29.4085 12.0145 29.2367 11.4545C29.065 10.8945 28.9857 10.1563 28.9857 9.22722V7.96722C28.9857 7.03812 29.0782 6.27449 29.2764 5.71449C29.4746 5.14176 29.7784 4.73449 30.2012 4.47994C30.6239 4.2254 31.1656 4.0854 31.8394 4.0854C32.5 4.0854 33.0416 4.21267 33.438 4.47994C33.8343 4.74722 34.1382 5.15449 34.3231 5.71449C34.5081 6.27449 34.6006 7.0254 34.6006 7.95449V9.21449C34.6006 10.1436 34.5081 10.8818 34.3231 11.4418C34.1382 12.0018 33.8475 12.409 33.438 12.6763C33.0284 12.9309 32.4735 13.0709 31.7865 13.0709C31.0731 13.0836 30.5183 12.9436 30.1087 12.689ZM32.3943 11.3272C32.5132 11.0472 32.566 10.5763 32.566 9.93994V7.22903C32.566 6.6054 32.5132 6.14721 32.3943 5.86722C32.2754 5.57449 32.0772 5.43449 31.7998 5.43449C31.5223 5.43449 31.3374 5.57449 31.2185 5.86722C31.0996 6.15994 31.0467 6.6054 31.0467 7.22903V9.93994C31.0467 10.5763 31.0996 11.0472 31.2052 11.3272C31.3109 11.6072 31.5091 11.7472 31.7998 11.7472C32.0772 11.7472 32.2754 11.6072 32.3943 11.3272ZM61.3536 9.25267V9.69812L61.4065 10.9581C61.4461 11.2381 61.5122 11.4418 61.6178 11.569C61.7235 11.6963 61.8953 11.7599 62.1199 11.7599C62.4237 11.7599 62.6351 11.6454 62.7408 11.4163C62.8597 11.1872 62.9126 10.8054 62.9258 10.2836L64.6829 10.3854C64.6961 10.4618 64.6961 10.5636 64.6961 10.6909C64.6961 11.4927 64.4715 12.0909 64.0091 12.4854C63.5467 12.8799 62.9126 13.0836 62.0802 13.0836C61.0762 13.0836 60.376 12.7781 59.9796 12.1799C59.5833 11.5818 59.3719 10.6399 59.3719 9.37994V7.83994C59.4168 5.67631 59.8118 4.09176 62.1331 4.0854C62.8333 4.0854 63.3617 4.21267 63.7317 4.45449C64.1016 4.69631 64.3658 5.07812 64.5243 5.59994C64.6829 6.12176 64.7489 6.83449 64.7489 7.75085V9.23994H61.3536V9.25267ZM61.6178 5.58722C61.5122 5.71449 61.4461 5.9054 61.4065 6.1854C61.3668 6.4654 61.3536 7.45812 61.3536 7.45812V8.08176H62.8333V7.45812C62.8333 8.08176 62.8201 6.47812 62.7804 6.1854C62.7408 5.89267 62.6748 5.68903 62.5691 5.57449C62.4634 5.45994 62.3048 5.39631 62.0935 5.39631C61.8689 5.40903 61.7103 5.47267 61.6178 5.58722ZM25.1676 9.08722L22.8557 1.04358H24.877C24.877 1.04358 25.8216 5.07812 26.1453 6.97449H26.1981C26.5654 4.96103 27.4928 1.04358 27.4928 1.04358H29.5142L27.1758 9.07449V12.9309H25.1809V9.08722H25.1676Z" fill="white"/>
<path d="M41.1534 4.25085V12.9436H39.5681L39.3963 11.8745H39.3567C38.9207 12.6763 38.2734 13.0836 37.4146 13.0836C35.8596 13.0798 35.6866 11.8109 35.6707 10.7418V4.25085H37.7053V10.6272C37.7053 11.009 37.7449 11.289 37.8374 11.4545C38.025 11.8083 38.5112 11.7179 38.7754 11.5436C38.9279 11.4442 39.0509 11.3082 39.1321 11.149V4.25085H41.1534Z" fill="white"/>
<path d="M51.4827 4.25085V12.9436H49.8973L49.7255 11.8745H49.6859C49.2499 12.6763 48.6026 13.0836 47.7438 13.0836C46.1889 13.0798 46.0158 11.8109 45.9999 10.7418V4.25085H48.0345V10.6272C48.0345 11.009 48.0741 11.289 48.1666 11.4545C48.3542 11.8083 48.8404 11.7179 49.1046 11.5436C49.2572 11.4442 49.3801 11.3082 49.4613 11.149V4.25085H51.4827Z" fill="white"/>
<path d="M46.6758 2.62178H44.6545V12.9436H42.6728V2.62178H40.6514V1.0436H46.6626V2.62178H46.6758ZM58.2886 5.63814C58.1697 5.09087 57.9716 4.69633 57.6941 4.44178C57.4167 4.19996 57.0468 4.07269 56.5579 4.07269C56.1862 4.0719 55.8227 4.17828 55.5142 4.37814C55.1839 4.58178 54.9461 4.84905 54.7612 5.17996H54.748V0.598145H52.7927V12.9309H54.4705L54.6819 12.1036H54.7216C54.8831 12.3949 55.1255 12.6373 55.4218 12.8036C55.7388 12.9691 56.0823 13.0581 56.4655 13.0581C57.1524 13.0581 57.6545 12.7527 57.9848 12.1418C58.3018 11.5309 58.4736 10.5763 58.4736 9.29087V7.91633C58.4736 6.94905 58.4075 6.18542 58.2886 5.63814ZM56.4258 9.18905C56.4258 9.82542 56.3994 10.3218 56.3465 10.6781C56.2937 11.0345 56.2012 11.2891 56.0691 11.4418C55.937 11.5945 55.7652 11.6709 55.5539 11.6709C55.1443 11.6581 54.9118 11.48 54.748 11.2127V6.27451C54.814 6.03269 54.9329 5.84178 55.1047 5.68905C55.3953 5.37469 55.8921 5.37087 56.122 5.68905C56.2409 5.84178 56.3069 6.10905 56.3598 6.47814C56.3994 6.84724 56.4258 7.36905 56.4258 8.05633V9.18905Z" fill="white"/>
</g>
<defs>
<clipPath id="clip0_406_238">
<rect width="65" height="14" fill="white"/>
</clipPath>
</defs>
</svg>
