<svg width="12" height="10" viewBox="0 0 12 10" fill="none" xmlns="http://www.w3.org/2000/svg">
<path d="M12 1.21768C11.5584 1.41754 11.084 1.55261 10.586 1.61337C11.0943 1.30237 11.4847 0.809881 11.6685 0.223087C11.1852 0.515807 10.6565 0.722047 10.1051 0.832895C9.65602 0.344522 9.01622 0.0393066 8.30808 0.0393066C6.94842 0.0393066 5.84606 1.16447 5.84606 2.55223C5.84606 2.74921 5.86786 2.94098 5.90981 3.12495C3.86372 3.02012 2.04966 2.01969 0.835359 0.499307C0.623484 0.870455 0.502078 1.30218 0.502078 1.76266C0.502078 2.63452 0.93675 3.40366 1.59731 3.85433C1.20635 3.84183 0.823992 3.73405 0.482156 3.53998C0.482016 3.5505 0.482016 3.56103 0.482016 3.5716C0.482016 4.78916 1.33064 5.80486 2.45686 6.03572C2.09432 6.13636 1.71404 6.15109 1.34508 6.07878C1.65834 7.07715 2.56758 7.80366 3.64486 7.824C2.80228 8.49797 1.7407 8.89974 0.587297 8.89974C0.388547 8.89974 0.192609 8.88782 0 8.86462C1.08952 9.57763 2.38359 9.99366 3.77391 9.99366C8.30236 9.99366 10.7786 6.16443 10.7786 2.84366C10.7786 2.73467 10.7763 2.62629 10.7715 2.51854C11.2535 2.16289 11.6695 1.72238 12 1.21768Z" fill="#55ACEE"/>
</svg>
